<svg xmlns="http://www.w3.org/2000/svg" viewBox="0 0 500 500"><g id="freepik--Floor--inject-29"><path d="M412.5,250.46c-90.34-52.15-236.31-52.15-326.06,0S-2.83,387.18,87.5,439.33s236.32,52.16,326.07,0S502.83,302.62,412.5,250.46Z" style="fill:#f5f5f5"></path></g><g id="freepik--Shadows--inject-29"><polygon points="226.45 438.35 91.31 360.31 118.32 344.65 253.49 422.74 226.45 438.35" style="fill:#e6e6e6"></polygon><polygon points="365.77 363.75 365.77 363.74 288.17 318.94 288.18 318.94 210.58 274.14 210.58 274.14 132.98 229.34 55.89 274.14 133.48 318.94 133.48 318.94 211.08 363.74 211.08 363.75 288.68 408.55 288.67 408.55 366.27 453.35 443.37 408.55 365.77 363.75" style="fill:#e6e6e6"></polygon></g><g id="freepik--Plants--inject-29"><path d="M424.36,403.33l-4.62-3.8c-.29-7.28-.57-15,.64-22.15s4-14.3,9.18-19.47c2.15-2.17,4.82-4,7.86-4.36s6.42,1.18,7.47,4.05-.56,6.27-2.32,8.94c-3.74,5.69-8.21,10.88-11.88,16.62A40.44,40.44,0,0,0,424.36,403.33Z" style="fill:#BA68C8"></path><path d="M424.36,404.32l4.62,3.8c3.42-7.21,8.13-13.9,14.64-18.52a40.92,40.92,0,0,0,6.48-5c1.86-2,3.16-4.76,2.62-7.43-.69-3.44-4.34-5.71-7.85-5.73s-6.79,1.76-9.5,4C427,382.23,422.26,393.77,424.36,404.32Z" style="fill:#BA68C8"></path><path d="M424.36,404.32l4.62,3.8c3.42-7.21,8.13-13.9,14.64-18.52a40.92,40.92,0,0,0,6.48-5c1.86-2,3.16-4.76,2.62-7.43-.69-3.44-4.34-5.71-7.85-5.73s-6.79,1.76-9.5,4C427,382.23,422.26,393.77,424.36,404.32Z" style="opacity:0.30000000000000004"></path><path d="M421.75,401.59h0a.41.41,0,0,1-.4-.41c.19-10.8,2.62-30.76,16.74-43a.4.4,0,1,1,.53.61c-6,5.17-16,17.57-16.47,42.44A.4.4,0,0,1,421.75,401.59Z" style="fill:#fff"></path><path d="M426.6,406.56h0a.4.4,0,0,1-.36-.44c.94-9.71,5.18-23.09,20-31.66a.41.41,0,0,1,.55.15.4.4,0,0,1-.15.55c-14.52,8.39-18.68,21.51-19.61,31A.39.39,0,0,1,426.6,406.56Z" style="fill:#fff"></path><path d="M62.16,227.57c-1.81-1.73-3.88-3.62-4-6.12a5.5,5.5,0,0,1,3.6-5.13,8.33,8.33,0,0,1,6.5.49,17.69,17.69,0,0,1,5.2,4.16,41.65,41.65,0,0,1,9.81,36.4A3,3,0,0,1,82,259.55c-1.21.64-2.59-.49-3.41-1.58a24.85,24.85,0,0,1-4-8c-.73-2.43-.4-5.1-1.31-7.39C71.05,237,66.47,231.69,62.16,227.57Z" style="fill:#BA68C8"></path><path d="M81,256.27h0a.47.47,0,0,1-.48-.48,47.34,47.34,0,0,0-17.72-36.53.48.48,0,0,1-.08-.68.47.47,0,0,1,.67-.08,48.26,48.26,0,0,1,18.09,37.29A.47.47,0,0,1,81,256.27Z" style="fill:#fff"></path><path d="M75.05,275.47c-3,1-6.88.34-8.64-2.33-2.08-3.14-.78-8-3.56-10.52-1.55-1.42-3.84-1.56-5.9-2s-4.36-1.56-4.66-3.65c-.41-2.76,3-5.05,2.51-7.81s-4.22-3.56-5.33-6.08c-1-2.29.78-5.07,3.14-5.93s5-.27,7.34.61,4.64,2,7.13,2.33,5.58-.19,7.49,1.59c2.54,2.38,1.09,6.92,3.05,9.79,1.32,1.93,3.81,2.6,5.71,4a9.12,9.12,0,0,1,3.77,7.49c-.06,3.17-1.73,5.45-4.11,7.27C80.45,272.13,78.18,274.46,75.05,275.47Z" style="fill:#BA68C8"></path><path d="M75.05,275.47c-3,1-6.88.34-8.64-2.33-2.08-3.14-.78-8-3.56-10.52-1.55-1.42-3.84-1.56-5.9-2s-4.36-1.56-4.66-3.65c-.41-2.76,3-5.05,2.51-7.81s-4.22-3.56-5.33-6.08c-1-2.29.78-5.07,3.14-5.93s5-.27,7.34.61,4.64,2,7.13,2.33,5.58-.19,7.49,1.59c2.54,2.38,1.09,6.92,3.05,9.79,1.32,1.93,3.81,2.6,5.71,4a9.12,9.12,0,0,1,3.77,7.49c-.06,3.17-1.73,5.45-4.11,7.27C80.45,272.13,78.18,274.46,75.05,275.47Z" style="opacity:0.2"></path><path d="M73.67,253.86l0-.05c-.46-.66-.93-1.31-1.43-1.94a35.07,35.07,0,0,0-17.52-11.65.47.47,0,0,0-.6.33.49.49,0,0,0,.33.6,34,34,0,0,1,17,11.33c.14.17.26.35.39.52-5.46-2-11-.86-14,1.53a.48.48,0,0,0-.07.68.46.46,0,0,0,.37.18.51.51,0,0,0,.31-.11c2.94-2.37,9-3.42,14.51-.76a34,34,0,0,1,5.85,17,.48.48,0,0,0,.48.45h0a.48.48,0,0,0,.45-.51A35,35,0,0,0,73.67,253.86Z" style="fill:#fff"></path></g><g id="freepik--Stairs--inject-29"><polygon points="134.03 208.25 70.88 244.95 70.8 275.79 134.36 312.48 197.5 275.79 197.59 244.95 134.03 208.25" style="fill:#BA68C8"></polygon><polygon points="197.59 244.95 134.03 208.25 70.88 244.95 134.44 281.64 197.59 244.95" style="fill:#fff;opacity:0.2"></polygon><polygon points="134.44 281.64 134.36 312.48 197.5 275.79 197.59 244.95 134.44 281.64" style="opacity:0.30000000000000004"></polygon><polygon points="209.48 212.41 146.33 249.11 146.25 319.35 209.81 356.05 272.96 319.35 273.04 249.11 209.48 212.41" style="fill:#BA68C8"></polygon><polygon points="273.04 249.11 209.48 212.41 146.33 249.11 209.89 285.81 273.04 249.11" style="fill:#fff;opacity:0.2"></polygon><polygon points="209.89 285.81 209.81 356.05 272.96 319.35 273.04 249.11 209.89 285.81" style="opacity:0.30000000000000004"></polygon><polygon points="286.75 216.88 223.6 253.57 223.52 363.76 287.08 400.46 350.22 363.76 350.31 253.57 286.75 216.88" style="fill:#BA68C8"></polygon><polygon points="350.31 253.57 286.75 216.88 223.6 253.57 287.16 290.27 350.31 253.57" style="fill:#fff;opacity:0.2"></polygon><polygon points="287.16 290.27 287.08 400.46 350.22 363.76 350.31 253.57 287.16 290.27" style="opacity:0.30000000000000004"></polygon><polygon points="286.79 216.59 223.64 253.28 223.56 363.61 287.12 400.31 350.26 363.61 350.35 253.28 286.79 216.59" style="fill:#BA68C8"></polygon><polygon points="350.35 253.28 286.79 216.59 223.64 253.28 287.2 289.98 350.35 253.28" style="fill:#fff;opacity:0.2"></polygon><polygon points="287.2 289.98 287.12 400.31 350.26 363.61 350.35 253.28 287.2 289.98" style="opacity:0.30000000000000004"></polygon><polygon points="365.81 205.81 302.67 242.51 302.58 409.43 366.14 446.13 429.29 409.43 429.37 242.51 365.81 205.81" style="fill:#BA68C8"></polygon><polygon points="429.37 242.51 365.81 205.81 302.67 242.51 366.23 279.21 429.37 242.51" style="fill:#fff;opacity:0.2"></polygon><polygon points="366.23 279.21 366.14 446.13 429.29 409.43 429.37 242.51 366.23 279.21" style="opacity:0.30000000000000004"></polygon></g><g id="freepik--Arrow--inject-29"><path d="M250.36,249.81,246,246.89l-32.9,66.78,4.32,2.92,19.32-11.15c-.84,31.39-9.55,47.13-18,56.17l-1.35.34-.79.18-1.58.34-.71.15-1.21.22-.89.15-1.28.2-.85.13c-.47.07-1,.12-1.43.18l-.75.1-2,.2-.21,0c-.73.07-1.47.12-2.21.17-.94.07-1.89.11-2.85.15l-.86,0-2.09,0h-.85c-1.15,0-2.31,0-3.47-.06l-.6,0c-1.08,0-2.16-.1-3.25-.17l-.55,0c-1.11-.08-2.22-.17-3.34-.29l-.8-.08c-1-.11-2-.22-3-.35l-.59-.08c-1.09-.15-2.18-.31-3.28-.49l-.79-.14c-.9-.15-1.79-.31-2.69-.48l-.84-.16c-1.07-.21-2.15-.44-3.24-.68l-.49-.11c-.93-.21-1.87-.44-2.81-.67l-1-.24-2.51-.66-.77-.21c-1.07-.3-2.15-.61-3.23-.94l-.75-.23q-1.24-.37-2.49-.78l-1-.34-2.43-.83-.85-.29q-1.6-.57-3.21-1.17l-.58-.23c-.89-.33-1.78-.68-2.67-1l-1-.42-2.3-.95-1-.43-3-1.29-.28-.12c-1.08-.49-2.17-1-3.25-1.5l-1-.45c-.78-.37-1.57-.75-2.35-1.14l-1.08-.53c-.83-.41-1.65-.83-2.48-1.26l-.83-.42-3.27-1.74c-.6-.31-1.19-.64-1.78-1-.31-.17-.62-.33-.92-.51l-2.65-1.49-.08-.05L91.31,355.92v4.39c30.7,17.67,60.77,26.08,87,24.34,12.47-.82,23.11-3.87,31.77-9.07-.21.13-.42.27-.64.39h0l27.1-15.75a51,51,0,0,0,6.84-4.75c.29-.23.59-.48.88-.73l.26-.22.69-.61.24-.21.91-.83.15-.15.77-.73.28-.27.76-.77.18-.19c.31-.32.62-.64.93-1,.07-.09.15-.17.23-.26q.36-.39.72-.81l.27-.32c.3-.34.59-.69.88-1.05l.06-.07c.31-.38.62-.77.92-1.17.09-.12.18-.23.26-.35.24-.31.47-.63.71-.95l.25-.35.9-1.32a2.14,2.14,0,0,0,.13-.19l.57-.87.17-.28.43-.71c.18-.29.36-.58.53-.88l.43-.75.51-.92.43-.8c.16-.32.33-.64.49-1l.42-.83c.07-.16.14-.3.22-.45s.25-.54.37-.82l.18-.38c.26-.58.52-1.18.78-1.79.05-.13.11-.28.17-.41.2-.51.41-1,.61-1.54l.19-.51c0-.12.09-.23.14-.34l.21-.61c.2-.55.39-1.1.58-1.66.11-.32.22-.65.32-1,.18-.56.36-1.12.53-1.7.06-.21.13-.4.19-.61s.08-.31.13-.46c.13-.46.26-.94.39-1.42s.21-.8.32-1.21.24-1,.36-1.5c.08-.3.15-.59.22-.9,0-.12.06-.26.08-.38.1-.44.19-.88.29-1.32l.3-1.46c.09-.46.17-.92.25-1.38s.14-.69.2-1c0-.17.05-.34.08-.51l.21-1.3c.09-.55.17-1.11.25-1.68s.13-.9.19-1.36c0-.31.09-.61.13-.93l.09-.83c.05-.45.11-.89.15-1.35.07-.61.13-1.24.19-1.86.05-.46.09-.92.13-1.39l.06-.64c0-.45.07-.92.1-1.38s.07-.88.09-1.33c0-.75.09-1.52.13-2.29,0-.4,0-.79.06-1.19,0-.08,0-.16,0-.24,0-1,.07-2.07.1-3.12v-.25c0-1.15,0-2.33,0-3.52,0-.12,0-.23,0-.35l15.75-9.09Z" style="fill:#455a64"></path><path d="M250.36,249.81l-32.9,66.78-4.32-2.92L246,246.89ZM211.63,374.59c.59-.38,1.16-.77,1.73-1.18l.68-.48c.75-.55,1.49-1.11,2.21-1.7l.87-.74h0l.26-.22.58-.5.11-.1.24-.21c.3-.27.61-.55.91-.84l.16-.15h0l.24-.22.53-.51.27-.27c.06-.06.12-.13.19-.19l.57-.57h0l.18-.19h0l.63-.67.3-.32.23-.25.72-.82.28-.32.28-.33.6-.72h0a.18.18,0,0,0,0-.07c.09-.1.17-.21.25-.31.23-.28.45-.57.68-.86h0l.26-.34.53-.73.17-.23.25-.35h0l.51-.74.4-.57h0a1.37,1.37,0,0,1,.13-.2l.33-.53c.14-.2.27-.41.4-.62s.29-.47.44-.71.35-.58.52-.88.29-.5.44-.75l.33-.6.18-.32.42-.8c.11-.2.21-.41.32-.62l.18-.35c.14-.27.27-.55.41-.83l.07-.15.53-1.11c.06-.13.11-.26.17-.38.17-.37.33-.76.5-1.14.09-.22.19-.43.28-.65s.12-.29.17-.43c.21-.5.41-1,.61-1.52h0c.07-.18.13-.35.2-.52s.15-.41.23-.62l.12-.33c.19-.55.39-1.1.57-1.66.09-.24.17-.5.25-.75l.08-.23h0c.18-.56.35-1.12.53-1.7h0l0-.07c.1-.33.2-.66.29-1s.26-.94.39-1.42c0,0,0-.08,0-.13.09-.36.19-.71.28-1.08h0c.13-.49.25-1,.37-1.5l.3-1.28c.1-.43.19-.88.28-1.32.06-.27.11-.54.17-.81s.09-.43.13-.65c.09-.46.18-.92.26-1.38h0c.08-.43.16-.86.23-1.3,0-.08,0-.16,0-.25.08-.43.15-.86.21-1.3h0c.09-.55.18-1.11.26-1.67h0l.18-1.37c.08-.58.16-1.17.23-1.76l.15-1.34c.07-.62.13-1.24.19-1.87,0-.46.09-.92.13-1.38.05-.67.11-1.35.15-2,0-.44.07-.88.1-1.33.05-.75.09-1.52.13-2.29,0-.4,0-.78.06-1.19.05-1.1.08-2.23.11-3.37,0-.08,0-.16,0-.24,0-1.28,0-2.6,0-3.94h0l-3.87,2.23c-.84,31.39-9.55,47.13-18,56.17a58.72,58.72,0,0,1-5.48,5.13,50.88,50.88,0,0,1-7,4.81c-.44.25-.89.49-1.34.73l-.87.46c-.48.25-1,.48-1.47.71l-.82.39c-.61.28-1.24.54-1.87.8l-.24.1c-.89.36-1.78.7-2.69,1-.48.17-1,.32-1.46.48l-.85.28c-.61.19-1.24.37-1.87.54l-.94.25c-.52.14-1.06.28-1.6.4l-1.1.25q-.89.21-1.8.39l-.47.08-1.94.35-.84.13-1.66.23-.92.12-1.71.19-.85.09c-.84.08-1.69.15-2.55.2s-1.95.11-2.93.15l-.79,0c-.69,0-1.38,0-2.08,0h-.86c-1.15,0-2.3,0-3.47-.06h-.17c-1.22,0-2.44-.11-3.66-.19h0l-.54,0h0c-1.14-.08-2.29-.18-3.44-.3l-.18,0c-1.14-.12-2.29-.25-3.45-.4l-.59-.08h0c-1.3-.18-2.6-.38-3.91-.6l-.16,0-2.69-.48-.83-.16c-1.08-.21-2.16-.44-3.24-.68l-.49-.11c-.94-.21-1.88-.43-2.82-.67l-1-.24c-.83-.21-1.67-.43-2.5-.66l-.08,0c-1.3-.36-2.61-.73-3.92-1.12l-.76-.24c-1-.3-2-.61-3-.93l0,0c-1-.32-2-.65-3-1l-.85-.29c-1.1-.39-2.21-.8-3.31-1.21l-.49-.19-2.66-1-1-.42c-1-.41-2-.84-3.06-1.27l-.11-.05c-1-.43-2.06-.88-3.09-1.34h0L111,366c-1.08-.49-2.16-1-3.24-1.49l-1-.46q-1.17-.55-2.34-1.14l-1.09-.53c-.91-.45-1.82-.92-2.73-1.39l-.58-.29c-1.09-.57-2.18-1.14-3.27-1.73l-1.8-1-.89-.49c-.91-.51-1.83-1-2.74-1.55v4.39c30.7,17.67,60.77,26.08,87,24.34,12.47-.82,23.11-3.87,31.77-9.07.27-.15.53-.31.79-.48S211.37,374.76,211.63,374.59Z" style="fill:#37474f"></path><path d="M94.94,358l1.8,1c1.09.59,2.18,1.16,3.27,1.73l.58.29c.91.47,1.82.94,2.73,1.39l1.09.53q1.17.58,2.34,1.14l1,.46c1.08.51,2.16,1,3.24,1.49l.27.12h0c1,.46,2.06.91,3.09,1.34l.11.05c1,.43,2,.86,3.06,1.27l1,.42,2.66,1,.49.19c1.1.41,2.21.82,3.31,1.21l.85.29c1,.35,2,.68,3,1l0,0c1,.32,2,.63,3,.93l.76.24c1.31.39,2.62.76,3.92,1.12l.08,0c.83.23,1.67.45,2.5.66l1,.24c.94.24,1.88.46,2.82.67l.49.11c1.08.24,2.16.47,3.24.68l.83.16,2.69.48.16,0c1.31.22,2.61.42,3.91.6h0l.59.08c1.16.15,2.31.28,3.45.4l.18,0c1.15.12,2.3.22,3.44.3h0l.54,0h0c1.22.08,2.44.15,3.66.19h.17c1.17,0,2.32.06,3.47.06h.86c.7,0,1.39,0,2.08,0l.79,0c1,0,2-.08,2.93-.15s1.71-.12,2.55-.2l.85-.09,1.71-.19.92-.12,1.66-.23.84-.13,1.94-.35.47-.08q.91-.18,1.8-.39l1.1-.25c.54-.12,1.08-.26,1.6-.4l.94-.25c.63-.17,1.26-.35,1.87-.54l.85-.28c.49-.16,1-.31,1.46-.48.91-.32,1.8-.66,2.69-1l.24-.1c.63-.26,1.26-.52,1.87-.8l.82-.39c.49-.23,1-.46,1.47-.71l.87-.46c.45-.24.9-.48,1.34-.73a50.88,50.88,0,0,0,7-4.81,58.72,58.72,0,0,0,5.48-5.13l-1.35.34-.79.18-1.58.34-.71.15-1.21.22-.89.15-1.28.2-.85.13c-.47.07-1,.12-1.43.18l-.75.1-2,.2-.21,0c-.73.07-1.47.12-2.21.17-.94.07-1.89.11-2.85.15l-.86,0-2.09,0h-.85c-1.15,0-2.31,0-3.47-.06l-.6,0c-1.08,0-2.16-.1-3.25-.17l-.55,0c-1.11-.08-2.22-.17-3.34-.29l-.8-.08c-1-.11-2-.22-3-.35l-.59-.08c-1.09-.15-2.18-.31-3.28-.49l-.79-.14c-.9-.15-1.79-.31-2.69-.48l-.84-.16c-1.07-.21-2.15-.44-3.24-.68l-.49-.11c-.93-.21-1.87-.44-2.81-.67l-1-.24-2.51-.66-.77-.21c-1.07-.3-2.15-.61-3.23-.94l-.75-.23q-1.24-.37-2.49-.78l-1-.34-2.43-.83-.85-.29q-1.6-.57-3.21-1.17l-.58-.23c-.89-.33-1.78-.68-2.67-1l-1-.42-2.3-.95-1-.43-3-1.29-.28-.12c-1.08-.49-2.17-1-3.25-1.5l-1-.45c-.78-.37-1.57-.75-2.35-1.14l-1.08-.53c-.83-.41-1.65-.83-2.48-1.26l-.83-.42-3.27-1.74c-.6-.31-1.19-.64-1.78-1-.31-.17-.62-.33-.92-.51l-2.65-1.49-.08-.05L91.31,355.92c.91.53,1.83,1,2.74,1.55Z" style="fill:#fff;opacity:0.2"></path></g><g id="freepik--Clouds--inject-29"><path d="M71.85,79.39c4.44-2.56,8.19-1.3,9.39,2.68A13.14,13.14,0,0,1,86,76.73c3.48-2,6.31-.39,6.32,3.6v1.84L97,79.47c2.44-1.4,4.42-.27,4.43,2.53a9.7,9.7,0,0,1-4.4,7.61L57.5,112.45c-2.44,1.4-4.42.28-4.43-2.52a9.68,9.68,0,0,1,4.4-7.62l4.67-2.7V96.24C62.11,90.05,66.47,82.51,71.85,79.39Z" style="fill:#e6e6e6"></path><path d="M110.61,94.35c3.19-1.83,5.88-.93,6.74,1.93a9.42,9.42,0,0,1,3.44-3.84c2.49-1.44,4.53-.28,4.53,2.59v1.32l3.35-1.94c1.75-1,3.17-.2,3.17,1.81a6.94,6.94,0,0,1-3.15,5.47l-28.39,16.39c-1.75,1-3.17.2-3.18-1.81a7,7,0,0,1,3.16-5.47l3.35-1.93v-2.43A15.39,15.39,0,0,1,110.61,94.35Z" style="fill:#e6e6e6"></path><path d="M433.45,89.55c-3.19-1.84-5.88-.94-6.74,1.92a9.39,9.39,0,0,0-3.44-3.83c-2.49-1.44-4.53-.28-4.53,2.59v1.31l-3.35-1.93c-1.75-1-3.17-.2-3.17,1.81a6.94,6.94,0,0,0,3.15,5.47l28.39,16.39c1.75,1,3.17.2,3.18-1.81a7,7,0,0,0-3.16-5.47l-3.35-1.94v-2.42A15.43,15.43,0,0,0,433.45,89.55Z" style="fill:#e6e6e6"></path></g><g id="freepik--speech-bubble--inject-29"><path d="M257.57,61a.76.76,0,0,0-.39-.67h0l-3.46-1.93h0a.75.75,0,0,0-.75,0l-23.73,13.7a2.34,2.34,0,0,0-1,1.06,2.38,2.38,0,0,0-.2.95l0,8.82-8.22,8.5c-.73.76-.81,1.91-.24,2.09l3.28,1.8a.47.47,0,0,0,.44.15l4.77-.58,0,6.48a.76.76,0,0,0,.38.66h0l3.45,1.91.05,0h0a.76.76,0,0,0,.7,0l23.73-13.71a2.31,2.31,0,0,0,1.16-2ZM232.14,74.46l-.08.09Zm-.23.29a.22.22,0,0,1,0,.08A.22.22,0,0,0,231.91,74.75Zm-.33.78a.44.44,0,0,1,0,.1A.44.44,0,0,0,231.58,75.53Zm.73-1.24.08-.07Z" style="fill:#BA68C8"></path><path d="M231.6,103.29a.76.76,0,0,0,.37.65L228.52,102h0a.76.76,0,0,1-.38-.66l0-6.48,3.47-.42Z" style="opacity:0.1"></path><path d="M229.21,72.09l23.73-13.7a.75.75,0,0,1,.75,0h0l3.46,1.93h0a.76.76,0,0,0-.77,0L232.68,74a2.32,2.32,0,0,0-1,1.12l-3.45-2A2.34,2.34,0,0,1,229.21,72.09Z" style="fill:#fff;opacity:0.2"></path><path d="M228.08,82.92l0-8.82a2.38,2.38,0,0,1,.2-.95l3.45,2a2.24,2.24,0,0,0-.17.89l0,8.83-3.47-1.94Z" style="opacity:0.1"></path><path d="M219.86,91.42l8.22-8.5,3.47,1.94h0l-8.21,8.49c-.64.65-.78,1.6-.44,2l-3.28-1.8C219.05,93.33,219.13,92.18,219.86,91.42Z" style="fill:#fff;opacity:0.05"></path><path d="M245.69,72.77a.43.43,0,0,1,.53,0l4.65,4.45c.33.31,0,1.21-.52,1.52l-2.57,1.48.06,10.57-4.12,2.38-.06-10.57-2.57,1.48c-.54.32-.85-.22-.53-.9l4.6-9.8A1.48,1.48,0,0,1,245.69,72.77Z" style="fill:#fff"></path></g><g id="freepik--Character--inject-29"><path d="M242.64,242.31c-1.57-3.67-4.84-7.15-9.8-10-14.45-8.35-37.8-8.35-52.16,0s-14.28,21.87.17,30.21c11.6,6.7,28.94,8,42.75,3.95V253.57Z" style="opacity:0.1"></path><polygon points="155.77 149.71 172.62 136.55 174.26 139.51 157.16 152.92 155.77 149.71" style="fill:#263238"></polygon><path d="M186.75,161.55l9.46-.86c-1.2,6-3.31,14.32-3.31,14.32l-8.72-5.6Z" style="fill:#455a64"></path><path d="M134.86,200.26a9.86,9.86,0,0,1,2-6,46,46,0,0,1,3.3-3.4A7.36,7.36,0,0,0,142,188a13.39,13.39,0,0,1,1.62-3.52,5.85,5.85,0,0,1,3.46-2.55,2.09,2.09,0,0,1,1.65.3l-.28-.35a2.09,2.09,0,0,0-2.14-.73,5.88,5.88,0,0,0-3.53,2.61,13,13,0,0,0-1.66,3.58,7.48,7.48,0,0,1-1.88,3,45.8,45.8,0,0,0-3.36,3.47,10.07,10.07,0,0,0-2.06,6.11,3.41,3.41,0,0,0,.84,2.52,2.22,2.22,0,0,0,1.27.55,1.64,1.64,0,0,1-.26-.2A3.33,3.33,0,0,1,134.86,200.26Z"></path><path d="M149.19,182.59a2,2,0,0,0-.45-.41,2.09,2.09,0,0,0-1.65-.3,5.85,5.85,0,0,0-3.46,2.55A13.39,13.39,0,0,0,142,188a7.36,7.36,0,0,1-1.84,2.93,46,46,0,0,0-3.3,3.4,9.86,9.86,0,0,0-2,6,3.33,3.33,0,0,0,.82,2.47,1.64,1.64,0,0,0,.26.2,2.6,2.6,0,0,0,2.23.21,4.87,4.87,0,0,0,2.1-1.58c.57-.67,1-1.42,1.61-2.1a19.94,19.94,0,0,1,3.25-2.9l3.21-2.46,1.46-10.7S149.53,183,149.19,182.59Z" style="fill:#263238"></path><path d="M172.08,180.79,171.59,194c-6-6.08-21.62-11.75-21.62-11.75-5.92,4.36-4.6,9.37-2.38,11.75,12.24,6.66,26.22,15.62,29.42,14.88s7.44-5.6,10.55-14.76l-6-10.3Z" style="fill:#37474f"></path><path d="M214.44,251.72a2.23,2.23,0,0,1-1.31,1.15,6.13,6.13,0,0,1-1.75.31,16.16,16.16,0,0,1-3.87-.06,7.06,7.06,0,0,1-3.51-1.51,13.89,13.89,0,0,1-2.24-2.85,26,26,0,0,0-6.07-6.28,11.16,11.16,0,0,0,.26,1.28,24.55,24.55,0,0,1,5.81,6.09,14.22,14.22,0,0,0,2.24,2.86,7.15,7.15,0,0,0,3.51,1.51,17.27,17.27,0,0,0,3.87.06,6.14,6.14,0,0,0,1.75-.32,2.23,2.23,0,0,0,1.31-1.15,1.94,1.94,0,0,0,.07-1.28A1.46,1.46,0,0,1,214.44,251.72Z" style="fill:#263238"></path><path d="M213.91,249.31a9.68,9.68,0,0,0-2-1.6A17.83,17.83,0,0,1,205,238.5l-9.18.52a5.61,5.61,0,0,0-.13,3.46,26,26,0,0,1,6.07,6.28,13.89,13.89,0,0,0,2.24,2.85,7.06,7.06,0,0,0,3.51,1.51,16.16,16.16,0,0,0,3.87.06,6.13,6.13,0,0,0,1.75-.31,2.23,2.23,0,0,0,1.31-1.15,1.46,1.46,0,0,0,.07-.19A2.48,2.48,0,0,0,213.91,249.31Z" style="fill:#37474f"></path><path d="M165.75,159.75c-2,9.7-1.23,14,6.33,21s20,17,20,17c-3,9.87,1.48,22.86,1.65,27.87s1.4,13.48,1.4,13.48c6.9,3.7,10.6,0,10.6,0V195.59a15.76,15.76,0,0,0-3.89-10.38L186.75,168v-6.42Z" style="fill:#455a64"></path><path d="M218.94,134.16a8.23,8.23,0,0,0,4.06.29c0-2.62,0-5.55.21-9.36.49-8.22-1.73-12.75-3.56-14.39s-5-1.67-6.17-.63,1.7,4.82,2.11,8.11c-1.64-1.92-2.47-2.57-4-1.4a10.22,10.22,0,0,1,2,3.59c.33,1.65,2.09,2.8,2.58,4.16.38,1.06,0,4.45-.63,7.36A8.17,8.17,0,0,0,218.94,134.16Z" style="fill:#f28f8f"></path><path d="M218.94,134.16a8.23,8.23,0,0,0,4.06.29c0-2.62,0-5.55.21-9.36.49-8.22-1.73-12.75-3.56-14.39s-5-1.67-6.17-.63,1.7,4.82,2.11,8.11c-1.64-1.92-2.47-2.57-4-1.4a10.22,10.22,0,0,1,2,3.59c.33,1.65,2.09,2.8,2.58,4.16.38,1.06,0,4.45-.63,7.36A8.17,8.17,0,0,0,218.94,134.16Z" style="opacity:0.2"></path><path d="M218.94,134.16a8.17,8.17,0,0,1-3.43-2.27c-.18.87-.38,1.7-.58,2.4,0,0-6.35-8.71-7.78-10.36s-2.74-5.58-9-6.31l.75,15.36s12.61,14.35,16.93,16.77,5.76-.72,6.64-6.53a56.65,56.65,0,0,0,.5-8.77A8.23,8.23,0,0,1,218.94,134.16Z" style="fill:#455a64"></path><path d="M214,143.59c-1-3.57.49-8,1-9.3l-1.08-1.48A12.52,12.52,0,0,0,214,143.59Z" style="opacity:0.30000000000000004"></path><path d="M179.56,117.29c-3.62-.49-7.48.12-11.43.78a152.92,152.92,0,0,0,0,25.81L165,160.65c12.25,7.4,27.87,4.11,31,2,4.93-19.23,6.16-37.4,2.18-45L188.44,116Z" style="fill:#37474f"></path><path d="M187.37,124.77l-2.86-2.27a17.2,17.2,0,0,1,2.8-1.07l1.13.56Z" style="fill:#BA68C8"></path><polygon points="190.44 124.53 191.07 124.14 192.13 121.84 190.9 121.43 190.17 121.99 190.44 124.53" style="fill:#BA68C8"></polygon><path d="M188.14,126.35c-2.16,8.58-12.22,14.17-20.51,13.57a5.08,5.08,0,0,0-3.33.86,15.2,15.2,0,0,0-3.21,3.13,1.32,1.32,0,0,0,.54,2,35.67,35.67,0,0,0,5.66,1.74,12.16,12.16,0,0,0,6.11-.16c15.07-4.36,17.16-14,16.75-21.15Z" style="fill:#BA68C8"></path><path d="M190.17,126.73c0-.13,0-.26,0-.38h-2s0,.08,0,.12a1.91,1.91,0,0,0,1,.43A2,2,0,0,0,190.17,126.73Z" style="opacity:0.30000000000000004"></path><path d="M188.44,122a5.58,5.58,0,0,1,1.73,0,4.37,4.37,0,0,1,.9,2.15,5.75,5.75,0,0,1-.92,2.21c-.52.39-2,0-2,0a10.37,10.37,0,0,1-1-1.61,1.28,1.28,0,0,1,0-1.13A4.8,4.8,0,0,1,188.44,122Z" style="fill:#BA68C8"></path><path d="M193.89,165.64a10.11,10.11,0,0,1-6.08,3.54L192.9,175a16.1,16.1,0,0,0-2.54-5.12A8.58,8.58,0,0,0,193.89,165.64Z" style="opacity:0.30000000000000004"></path><path d="M189.22,121.73c2.32-.62,3.8,2,3.8,2,.14-5.69-2.81-7.87-2.81-7.87Z" style="fill:#455a64"></path><path d="M179.34,93.62c-1-.69-2.07-1.37-3.11-2.05a2.75,2.75,0,0,1,2.14-1,1.81,1.81,0,0,1,1.21.6,1.84,1.84,0,0,1,.43,1.29c.1-1.86,1.7-3.53,3.37-4.34a10.77,10.77,0,0,1,5.46-.79c1.85.12,3.69.48,5.54.54a18.11,18.11,0,0,0,6.33-.89,1.31,1.31,0,0,1,1.68,1.59,8.87,8.87,0,0,1-1.76,3.21,3.88,3.88,0,0,0,1.32.14,1.31,1.31,0,0,1,1.2,2,7.36,7.36,0,0,1-3.31,2.67c-4.93,7.78-18.22,14.73-18.22,14.73a2.81,2.81,0,0,1-2.13-1.5,8,8,0,0,1-.75-2.6q-.86-5.11-1.41-10.27a5,5,0,0,1,.09-2.18A1.71,1.71,0,0,1,179,93.56" style="fill:#263238"></path><path d="M180.63,105.66c-.36,3.21-1.07,8.75-1.07,8.75,2.8,3.78,8.22,4.61,9.66,7.32a44.39,44.39,0,0,0,1.81-9.25l-9.25-7.27Z" style="fill:#f28f8f"></path><path d="M180.63,105.66c-.36,3.21-1.07,8.75-1.07,8.75,2.8,3.78,8.22,4.61,9.66,7.32a44.39,44.39,0,0,0,1.81-9.25l-9.25-7.27Z" style="opacity:0.2"></path><path d="M181.78,105.21l-.24.09a10.3,10.3,0,0,0,9,10.68c.37-2.17.45-3.5.45-3.5Z" style="opacity:0.30000000000000004"></path><path d="M199.84,96.61a33.77,33.77,0,0,1-1.73,15.85,3.28,3.28,0,0,1-3.09,2.13c-7,0-12.56-2.4-13.53-8.64a2.64,2.64,0,0,1-3.06.82,4.6,4.6,0,0,1-2.25-2.25,4.75,4.75,0,0,1-.58-1.67,2.34,2.34,0,0,1,.41-1.69,2.32,2.32,0,0,1,2.65-.58,3.88,3.88,0,0,1,2,2.07c.15.34.35.75.72.76s.6-.42.72-.78a13.63,13.63,0,0,0,.57-4.53,4.45,4.45,0,0,0,3.21-.61,4.36,4.36,0,0,0,1.8-2.7,4,4,0,0,0,3,2.1,3.89,3.89,0,0,0,3.36-1.19,4.79,4.79,0,0,0,2.68,1.38A5.57,5.57,0,0,0,199.84,96.61Z" style="fill:#f28f8f"></path><path d="M199.84,96.61a33.77,33.77,0,0,1-1.73,15.85,3.28,3.28,0,0,1-3.09,2.13c-7,0-12.56-2.4-13.53-8.64a2.64,2.64,0,0,1-3.06.82,4.6,4.6,0,0,1-2.25-2.25,4.75,4.75,0,0,1-.58-1.67,2.34,2.34,0,0,1,.41-1.69,2.32,2.32,0,0,1,2.65-.58,3.88,3.88,0,0,1,2,2.07c.15.34.35.75.72.76s.6-.42.72-.78a13.63,13.63,0,0,0,.57-4.53,4.45,4.45,0,0,0,3.21-.61,4.36,4.36,0,0,0,1.8-2.7,4,4,0,0,0,3,2.1,3.89,3.89,0,0,0,3.36-1.19,4.79,4.79,0,0,0,2.68,1.38A5.57,5.57,0,0,0,199.84,96.61Z" style="opacity:0.2"></path><polygon points="193.45 102.67 196.66 106.72 193.62 107.73 193.45 102.67" style="fill:#f28f8f"></polygon><polygon points="193.45 102.67 196.66 106.72 193.62 107.73 193.45 102.67" style="opacity:0.30000000000000004"></polygon><path d="M190.82,109.65l2.53.83a1.57,1.57,0,0,1-1.73.76A1.42,1.42,0,0,1,190.82,109.65Z" style="fill:#f28f8f"></path><path d="M190.82,109.65l2.53.83a1.57,1.57,0,0,1-1.73.76A1.42,1.42,0,0,1,190.82,109.65Z" style="opacity:0.30000000000000004"></path><path d="M192.45,111.2a1.47,1.47,0,0,1-.83,0,1.29,1.29,0,0,1-.8-1.17,1.53,1.53,0,0,1,1,.2A1.51,1.51,0,0,1,192.45,111.2Z" style="fill:#f28f8f"></path><path d="M189,103.46a.89.89,0,0,0,.93.87.91.91,0,1,0-.93-.87Z" style="fill:#263238"></path><path d="M196.53,102.91a.92.92,0,0,0,.94.87.91.91,0,1,0-.94-.87Z" style="fill:#263238"></path><path d="M197.29,99.28l2.05,1.32a1.29,1.29,0,0,0-.44-1.41A1.54,1.54,0,0,0,197.29,99.28Z" style="fill:#263238"></path><path d="M189.55,99.44l-2,1.45a1.29,1.29,0,0,1,.35-1.43A1.51,1.51,0,0,1,189.55,99.44Z" style="fill:#263238"></path><path d="M179.56,114.41l.18-1.42a1.38,1.38,0,0,0-.36,0c-1,.53-2.83,3.42-2.83,3.42.65,1.54,3.78,6.33,6.24,8,2.85-1.43,4.91-3.43,6.43-2.7C188.63,118.4,179.56,114.41,179.56,114.41Z" style="fill:#455a64"></path><path d="M174,167.08c6.85-9.6,21.92-31.83,21-50l3.11.52c1.29,17.89-12.89,41.22-22.76,53.32Z" style="fill:#263238"></path><path d="M171.88,174.7,151,157.08l-3.69,13a.54.54,0,0,0,.11.48h0l0,0,.07.06,20.62,18.44a.55.55,0,0,1-.14-.54Z" style="fill:#BA68C8"></path><path d="M171.88,174.7,151,157.08l-3.69,13a.54.54,0,0,0,.11.48h0l0,0,.07.06,20.62,18.44a.55.55,0,0,1-.14-.54Z" style="opacity:0.15"></path><polygon points="170.98 177.88 174.26 166.3 170.98 177.88 170.98 177.88" style="fill:#BA68C8"></polygon><path d="M176.48,165.06l0,0Z" style="fill:#BA68C8"></path><path d="M168.1,189.12h0Z" style="fill:#BA68C8"></path><polygon points="176.51 165.09 176.5 165.08 176.51 165.1 176.51 165.09" style="fill:#BA68C8"></polygon><polygon points="168.1 189.13 168.11 189.13 168.09 189.12 168.1 189.13" style="fill:#BA68C8"></polygon><polygon points="150.19 159.79 150.19 159.79 150.19 159.79 150.19 159.79" style="fill:#BA68C8"></polygon><path d="M176.72,165.71a.73.73,0,0,0-.21-.61v0l0,0a.74.74,0,0,0-.63-.19h0a2,2,0,0,0-1.59,1.43L171,177.88l-3,10.7a.55.55,0,0,0,.14.54h0a.53.53,0,0,0,.53.13l4.09-1.24a1.65,1.65,0,0,0,1.17-1.37Z" style="fill:#BA68C8"></path><path d="M176.72,165.71a.73.73,0,0,0-.21-.61v0l0,0a.74.74,0,0,0-.63-.19h0a2,2,0,0,0-1.59,1.43L171,177.88l-3,10.7a.55.55,0,0,0,.14.54h0a.53.53,0,0,0,.53.13l4.09-1.24a1.65,1.65,0,0,0,1.17-1.37Z" style="opacity:0.30000000000000004"></path><polygon points="164.54 167.19 160.84 180.45 161.42 181.01 165 167.85 164.54 167.19" style="fill:#BA68C8"></polygon><polygon points="156.69 160.17 153 173.44 153.58 174 157.16 160.84 156.69 160.17" style="fill:#BA68C8"></polygon><path d="M155.82,146.61h0l0,0a.74.74,0,0,0-.61-.18,2,2,0,0,0-1.59,1.43l-2.83,10a3.25,3.25,0,0,0,1,3.32l2.18,1.89L168.81,176a1.82,1.82,0,0,0,2.95-.88l2.5-8.8a2,2,0,0,1,1.59-1.43h0a.74.74,0,0,1,.63.19Z" style="fill:#BA68C8"></path><path d="M155.82,146.61h0l0,0a.74.74,0,0,0-.61-.18,2,2,0,0,0-1.59,1.43l-2.83,10a3.25,3.25,0,0,0,1,3.32l2.18,1.89L168.81,176a1.82,1.82,0,0,0,2.95-.88l2.5-8.8a2,2,0,0,1,1.59-1.43h0a.74.74,0,0,1,.63.19Z" style="fill:#fff;opacity:0.2"></path><path d="M143,147.58l.67,10.11c1.43,10.08,3.29,11.67,7.9,13s1.91-4.43,1.31-5.5a11.89,11.89,0,0,1-.93-3c2.27,2.06,2.85,1.84,3.75,1.21.36-.28-1.34-1.76-1.34-1.76a22.49,22.49,0,0,0-3.48-5.34l.53-8.74Z" style="fill:#f28f8f"></path><path d="M143,147.58l.67,10.11c1.43,10.08,3.29,11.67,7.9,13s1.91-4.43,1.31-5.5a11.89,11.89,0,0,1-.93-3c2.27,2.06,2.85,1.84,3.75,1.21.36-.28-1.34-1.76-1.34-1.76a22.49,22.49,0,0,0-3.48-5.34l.53-8.74Z" style="opacity:0.2"></path><path d="M173,117.35c-6.49-1.09-10.76,2.18-13.72,4.08-2.14,1.38-10,7.3-14.18,10.47a6.58,6.58,0,0,0-2.6,5.38l.23,10.69a8.86,8.86,0,0,0,8.88-.36l.76-7.84s9.12-4.44,15.25-7.23S174.49,121.92,173,117.35Z" style="fill:#455a64"></path><path d="M146.48,250.46a16.15,16.15,0,0,0-5.2-.84c-5.58,0-10.1,2.59-10.1,5.78s4.52,5.79,10.1,5.79a15.87,15.87,0,0,0,5.2-.85Z" style="opacity:0.1"></path></g></svg>